<svg width="19" height="19" viewBox="0 0 19 19" fill="none" xmlns="http://www.w3.org/2000/svg">
<path d="M5.83377 8.66669L9.1671 1.16669C9.83014 1.16669 10.466 1.43008 10.9349 1.89892C11.4037 2.36776 11.6671 3.00365 11.6671 3.66669V7.00002H16.3838C16.6254 6.99728 16.8647 7.04711 17.0851 7.14603C17.3055 7.24496 17.5018 7.39063 17.6603 7.57295C17.8189 7.75527 17.9359 7.96987 18.0032 8.2019C18.0706 8.43392 18.0867 8.67782 18.0504 8.91669L16.9004 16.4167C16.8402 16.8141 16.6383 17.1764 16.332 17.4367C16.0257 17.697 15.6357 17.8379 15.2338 17.8334H5.83377M5.83377 8.66669V17.8334M5.83377 8.66669H3.33377C2.89174 8.66669 2.46781 8.84228 2.15525 9.15484C1.84269 9.4674 1.6671 9.89133 1.6671 10.3334V16.1667C1.6671 16.6087 1.84269 17.0326 2.15525 17.3452C2.46781 17.6578 2.89174 17.8334 3.33377 17.8334H5.83377" stroke="#5D6778" stroke-width="1.75" stroke-linecap="round" stroke-linejoin="round"/>
</svg>
